<svg width="40" height="40" viewBox="0 0 40 40" fill="none" xmlns="http://www.w3.org/2000/svg">
<path d="M19.2836 28.1637C14.7493 28.1637 11.0605 24.4749 11.0605 19.9406C11.0605 15.6864 14.2507 12.1687 18.4807 11.758C18.7516 11.731 19.0073 11.88 19.119 12.1271C19.2313 12.3743 19.1741 12.6651 18.9766 12.8507C17.9454 13.8215 17.3777 15.1311 17.3777 16.5389C17.3777 19.3352 19.6527 21.6102 22.449 21.6102C23.9739 21.6102 25.4033 20.9324 26.3719 19.7518C26.544 19.5419 26.8311 19.4658 27.0836 19.5597C27.3378 19.6546 27.5029 19.9007 27.4954 20.1716C27.3713 24.653 23.764 28.1637 19.2836 28.1637ZM16.9498 13.3844C14.2264 14.3422 12.3281 16.9226 12.3281 19.9406C12.3281 23.7762 15.4481 26.8962 19.2836 26.8962C22.4959 26.8962 25.1772 24.762 25.9834 21.8028C24.9506 22.4984 23.7262 22.8788 22.449 22.8788C18.9534 22.8788 16.1097 20.0356 16.1097 16.5395C16.1097 15.4106 16.401 14.3325 16.9498 13.3844Z" fill="white"/>
<circle cx="19.5576" cy="20.2549" r="19" stroke="white"/>
</svg>

