<svg width="16" height="15" viewBox="0 0 16 15" fill="none" xmlns="http://www.w3.org/2000/svg">
<path d="M8.36553 14C14.246 10.5 17.3113 5.20921 13.9567 2.76734C11.7565 1.16576 9.29742 2.44175 8.36553 3.25572H8.34402H8.34397H8.32246C7.39056 2.44175 4.93145 1.16576 2.73126 2.76734C-0.623308 5.20921 2.44196 10.5 8.32246 14H8.34397H8.34402H8.36553Z" fill="#AD61FF"/>
<path d="M8.34396 3.25572H8.36553C9.29742 2.44175 11.7565 1.16576 13.9567 2.76734C17.3113 5.20921 14.246 10.5 8.36553 14H8.34396M8.34402 3.25572H8.32246C7.39056 2.44175 4.93145 1.16576 2.73126 2.76734C-0.623308 5.20921 2.44196 10.5 8.32246 14H8.34402" stroke="#AD61FF"/>
<path d="M1 1L15 13.5" stroke="black"/>
</svg>
