<svg width="16" height="14" viewBox="0 0 16 14" fill="none" xmlns="http://www.w3.org/2000/svg">
<path d="M8.02154 13C13.902 9.5 16.9673 4.20921 13.6127 1.76734C11.4125 0.165765 8.95343 1.44175 8.02154 2.25572H8.00003H7.99997H7.97846C7.04657 1.44175 4.58746 0.165765 2.38727 1.76734C-0.967302 4.20921 2.09797 9.5 7.97846 13H7.99997H8.00003H8.02154Z" fill="#AD61FF"/>
<path d="M7.99997 2.25572H8.02154C8.95343 1.44175 11.4125 0.165765 13.6127 1.76734C16.9673 4.20921 13.902 9.5 8.02154 13H7.99997M8.00003 2.25572H7.97846C7.04657 1.44175 4.58746 0.165765 2.38727 1.76734C-0.967302 4.20921 2.09797 9.5 7.97846 13H8.00003" stroke="#AD61FF"/>
</svg>
