<svg width="19" height="18" viewBox="0 0 19 18" fill="none" xmlns="http://www.w3.org/2000/svg">
<path d="M6.83683 5.91673L7.29137 5.7084L6.83683 5.91673ZM9.66317 12.0833L9.20863 12.2916L9.66317 12.0833ZM19 15L14 12.1132V17.8868L19 15ZM0 3.5H2.29151V2.5H0V3.5ZM6.3823 6.12505L9.20863 12.2916L10.1177 11.8749L7.29137 5.7084L6.3823 6.12505ZM14.2085 15.5H14.5V14.5H14.2085V15.5ZM9.20863 12.2916C10.1047 14.2466 12.0579 15.5 14.2085 15.5V14.5C12.449 14.5 10.8508 13.4745 10.1177 11.8749L9.20863 12.2916ZM2.29151 3.5C4.05105 3.5 5.64918 4.52552 6.3823 6.12505L7.29137 5.7084C6.39533 3.75341 4.44205 2.5 2.29151 2.5V3.5Z" fill="black"/>
<path d="M6.83683 12.0833L7.29137 12.2916L6.83683 12.0833ZM9.66317 5.91673L9.20863 5.7084L9.66317 5.91673ZM19 3L14 5.88675V0.113249L19 3ZM0 14.5H2.29151V15.5H0V14.5ZM6.3823 11.8749L9.20863 5.7084L10.1177 6.12505L7.29137 12.2916L6.3823 11.8749ZM14.2085 2.5H14.5V3.5H14.2085V2.5ZM9.20863 5.7084C10.1047 3.75341 12.0579 2.5 14.2085 2.5V3.5C12.449 3.5 10.8508 4.52552 10.1177 6.12505L9.20863 5.7084ZM2.29151 14.5C4.05105 14.5 5.64918 13.4745 6.3823 11.8749L7.29137 12.2916C6.39533 14.2466 4.44205 15.5 2.29151 15.5V14.5Z" fill="black"/>
</svg>
